<?xml version="1.0" encoding="iso-8859-1"?>
<!-- Generator: Adobe Illustrator 21.0.2, SVG Export Plug-In . SVG Version: 6.00 Build 0)  -->
<svg xmlns="http://www.w3.org/2000/svg" xmlns:xlink="http://www.w3.org/1999/xlink" version="1.1" id="Layer_1" x="0px" y="0px" viewBox="0 0 40 40" style="enable-background:new 0 0 40 40;" xml:space="preserve">
<g>
	<g>
		<path style="fill:#DFF0FE;" d="M33.92,14.06c-0.449-2.87-2.925-5.067-5.92-5.067c-0.438,0-0.865,0.05-1.276,0.139    c-1.073-4.66-5.238-8.139-10.224-8.139c-5.799,0-10.5,4.701-10.5,10.5c0,0.254,0.02,0.503,0.038,0.752    C2.57,13.121,0,16.252,0,19.992c0,4.418,3.582,8,8,8h25c3.866,0,7-3.134,7-7C40,17.439,37.35,14.511,33.92,14.06z"/>
	</g>
</g>
<path style="fill:none;stroke:#4788C7;stroke-linecap:round;stroke-miterlimit:10;" d="M29.5,27.492H33c3.584,0,6.5-2.916,6.5-6.5  c0-3.245-2.427-6.013-5.645-6.437l-0.371-0.049l-0.058-0.37C33.005,11.445,30.723,9.492,28,9.492c-0.387,0-0.78,0.043-1.17,0.128  l-0.483,0.105l-0.111-0.481c-1.05-4.564-5.054-7.752-9.736-7.752c-5.514,0-10,4.486-10,10c0,0.219,0.016,0.434,0.037,0.717  l0.03,0.418l-0.406,0.103C2.828,13.572,0.5,16.559,0.5,19.992c0,3.622,2.581,6.652,6,7.349"/>
<path style="fill:none;stroke:#4788C7;stroke-linecap:round;stroke-miterlimit:10;" d="M20.528,23.558  C20.745,21.833,22.217,20.5,24,20.5c1.933,0,3.5,1.567,3.5,3.5s-1.567,3.5-3.5,3.5H9.563"/>
<path style="fill:none;stroke:#4788C7;stroke-linecap:round;stroke-miterlimit:10;" d="M7.563,30.5H30c1.381,0,2.5,1.119,2.5,2.5  c0,1.381-1.119,2.5-2.5,2.5c-1.208,0-2.216-0.857-2.449-1.996"/>
<path style="fill:none;stroke:#4788C7;stroke-linecap:round;stroke-miterlimit:10;" d="M17.5,35.5c0,1.105,0.895,2,2,2s2-0.895,2-2  s-0.895-2-2-2H5.562"/>
</svg>
